<svg xmlns="http://www.w3.org/2000/svg" width="207.93" height="35" viewBox="0 0 207.93 35"><rect class="svg__rect" x="0" y="0" width="84.66" height="35" fill="#31C4F3"/><rect class="svg__rect" x="82.66" y="0" width="125.27" height="35" fill="#389AD5"/><path class="svg__text" d="M13.78 19.42L13.78 19.42L15.27 19.42Q15.27 20.15 15.75 20.55Q16.23 20.95 17.12 20.95L17.12 20.95Q17.90 20.95 18.29 20.63Q18.68 20.32 18.68 19.80L18.68 19.80Q18.68 19.24 18.28 18.94Q17.89 18.63 16.85 18.32Q15.82 18.01 15.21 17.63L15.21 17.63Q14.05 16.90 14.05 15.72L14.05 15.72Q14.05 14.69 14.89 14.02Q15.73 13.35 17.07 13.35L17.07 13.35Q17.96 13.35 18.66 13.68Q19.36 14.01 19.75 14.61Q20.15 15.22 20.15 15.96L20.15 15.96L18.68 15.96Q18.68 15.29 18.26 14.91Q17.84 14.54 17.06 14.54L17.06 14.54Q16.33 14.54 15.93 14.85Q15.53 15.16 15.53 15.71L15.53 15.71Q15.53 16.18 15.96 16.50Q16.40 16.81 17.39 17.10Q18.39 17.40 18.99 17.78Q19.60 18.16 19.88 18.65Q20.16 19.13 20.16 19.79L20.16 19.79Q20.16 20.86 19.34 21.49Q18.52 22.12 17.12 22.12L17.12 22.12Q16.20 22.12 15.42 21.77Q14.64 21.43 14.21 20.83Q13.78 20.22 13.78 19.42ZM26.13 14.66L23.49 14.66L23.49 13.47L30.26 13.47L30.26 14.66L27.60 14.66L27.60 22L26.13 22L26.13 14.66ZM35.50 22L34.02 22L34.02 13.47L37.02 13.47Q38.49 13.47 39.30 14.13Q40.10 14.79 40.10 16.05L40.10 16.05Q40.10 16.90 39.68 17.48Q39.27 18.06 38.53 18.37L38.53 18.37L40.45 21.92L40.45 22L38.86 22L37.15 18.71L35.50 18.71L35.50 22ZM35.50 14.66L35.50 17.52L37.02 17.52Q37.77 17.52 38.19 17.15Q38.62 16.77 38.62 16.11L38.62 16.11Q38.62 15.43 38.23 15.05Q37.84 14.68 37.06 14.66L37.06 14.66L35.50 14.66ZM50.07 22L44.49 22L44.49 13.47L50.03 13.47L50.03 14.66L45.98 14.66L45.98 17.02L49.48 17.02L49.48 18.19L45.98 18.19L45.98 20.82L50.07 20.82L50.07 22ZM53.83 19.42L53.83 19.42L55.31 19.42Q55.31 20.15 55.80 20.55Q56.28 20.95 57.17 20.95L57.17 20.95Q57.95 20.95 58.34 20.63Q58.73 20.32 58.73 19.80L58.73 19.80Q58.73 19.24 58.33 18.94Q57.93 18.63 56.90 18.32Q55.87 18.01 55.26 17.63L55.26 17.63Q54.10 16.90 54.10 15.72L54.10 15.72Q54.10 14.69 54.94 14.02Q55.78 13.35 57.12 13.35L57.12 13.35Q58.01 13.35 58.71 13.68Q59.40 14.01 59.80 14.61Q60.20 15.22 60.20 15.96L60.20 15.96L58.73 15.96Q58.73 15.29 58.31 14.91Q57.89 14.54 57.11 14.54L57.11 14.54Q56.38 14.54 55.98 14.85Q55.58 15.16 55.58 15.71L55.58 15.71Q55.58 16.18 56.01 16.50Q56.45 16.81 57.44 17.10Q58.44 17.40 59.04 17.78Q59.64 18.16 59.93 18.65Q60.21 19.13 60.21 19.79L60.21 19.79Q60.21 20.86 59.39 21.49Q58.57 22.12 57.17 22.12L57.17 22.12Q56.25 22.12 55.47 21.77Q54.69 21.43 54.26 20.83Q53.83 20.22 53.83 19.42ZM64.06 19.42L64.06 19.42L65.55 19.42Q65.55 20.15 66.03 20.55Q66.51 20.95 67.40 20.95L67.40 20.95Q68.18 20.95 68.57 20.63Q68.96 20.32 68.96 19.80L68.96 19.80Q68.96 19.24 68.56 18.94Q68.16 18.63 67.13 18.32Q66.10 18.01 65.49 17.63L65.49 17.63Q64.33 16.90 64.33 15.72L64.33 15.72Q64.33 14.69 65.17 14.02Q66.01 13.35 67.35 13.35L67.35 13.35Q68.24 13.35 68.94 13.68Q69.64 14.01 70.03 14.61Q70.43 15.22 70.43 15.96L70.43 15.96L68.96 15.96Q68.96 15.29 68.54 14.91Q68.12 14.54 67.34 14.54L67.34 14.54Q66.61 14.54 66.21 14.85Q65.81 15.16 65.81 15.71L65.81 15.71Q65.81 16.18 66.24 16.50Q66.68 16.81 67.67 17.10Q68.67 17.40 69.27 17.78Q69.88 18.16 70.16 18.65Q70.44 19.13 70.44 19.79L70.44 19.79Q70.44 20.86 69.62 21.49Q68.80 22.12 67.40 22.12L67.40 22.12Q66.48 22.12 65.70 21.77Q64.92 21.43 64.49 20.83Q64.06 20.22 64.06 19.42Z" fill="#FFFFFF"/><path class="svg__text" d="M96.42 17.80L96.42 17.80Q96.42 16.55 97.02 15.55Q97.63 14.56 98.69 14.00Q99.75 13.43 101.08 13.43L101.08 13.43Q102.41 13.43 103.48 14.00Q104.54 14.56 105.15 15.55Q105.75 16.55 105.75 17.80L105.75 17.80Q105.75 19.05 105.15 20.04Q104.54 21.04 103.48 21.60Q102.42 22.17 101.08 22.17L101.08 22.17Q99.75 22.17 98.69 21.60Q97.63 21.04 97.02 20.04Q96.42 19.05 96.42 17.80ZM98.82 17.80L98.82 17.80Q98.82 18.51 99.12 19.05Q99.42 19.60 99.94 19.90Q100.45 20.20 101.08 20.20L101.08 20.20Q101.72 20.20 102.24 19.90Q102.75 19.60 103.05 19.05Q103.35 18.51 103.35 17.80L103.35 17.80Q103.35 17.09 103.05 16.54Q102.75 16 102.24 15.70Q101.72 15.40 101.08 15.40L101.08 15.40Q100.45 15.40 99.93 15.70Q99.42 16 99.12 16.54Q98.82 17.09 98.82 17.80ZM113.07 22L109.47 13.60L112.05 13.60L114.33 19.07L116.65 13.60L119.00 13.60L115.40 22L113.07 22ZM129.90 22L123.16 22L123.16 13.60L129.75 13.60L129.75 15.44L125.51 15.44L125.51 16.85L129.24 16.85L129.24 18.63L125.51 18.63L125.51 20.17L129.90 20.17L129.90 22ZM137.08 22L134.71 22L134.71 13.60L138.55 13.60Q139.69 13.60 140.53 13.98Q141.37 14.35 141.82 15.06Q142.28 15.76 142.28 16.71L142.28 16.71Q142.28 17.62 141.85 18.30Q141.43 18.98 140.63 19.36L140.63 19.36L142.45 22L139.90 22L138.38 19.77L137.08 19.77L137.08 22ZM137.08 15.47L137.08 17.93L138.40 17.93Q139.13 17.93 139.51 17.61Q139.88 17.29 139.88 16.71L139.88 16.71Q139.88 16.12 139.51 15.79Q139.13 15.47 138.40 15.47L138.40 15.47L137.08 15.47ZM153.40 16.30L153.40 16.30Q153.40 15.45 153.83 14.80Q154.27 14.14 155.02 13.79Q155.77 13.43 156.68 13.43L156.68 13.43Q158.49 13.43 159.54 14.50Q160.59 15.57 160.59 17.57L160.59 17.57Q160.59 19.01 160.03 20.05Q159.47 21.09 158.45 21.63Q157.44 22.17 156.11 22.17L156.11 22.17Q155.40 22.17 154.75 22.01Q154.11 21.84 153.65 21.55L153.65 21.55L154.51 19.85Q155.12 20.28 156.06 20.28L156.06 20.28Q156.96 20.28 157.52 19.79Q158.07 19.29 158.17 18.34L158.17 18.34Q157.45 18.95 156.29 18.95L156.29 18.95Q155.49 18.95 154.84 18.62Q154.18 18.29 153.79 17.68Q153.40 17.08 153.40 16.30ZM155.70 16.19L155.70 16.19Q155.70 16.67 156.02 16.96Q156.34 17.25 156.85 17.25L156.85 17.25Q157.37 17.25 157.69 16.96Q158.01 16.66 158.01 16.18L158.01 16.18Q158.01 15.71 157.70 15.42Q157.38 15.12 156.84 15.12L156.84 15.12Q156.34 15.12 156.02 15.41Q155.70 15.70 155.70 16.19ZM164.89 17.80L164.89 17.80Q164.89 16.45 165.36 15.46Q165.83 14.46 166.67 13.95Q167.51 13.43 168.59 13.43L168.59 13.43Q169.66 13.43 170.50 13.95Q171.34 14.46 171.81 15.46Q172.29 16.45 172.29 17.80L172.29 17.80Q172.29 19.15 171.81 20.15Q171.34 21.14 170.50 21.65Q169.66 22.17 168.59 22.17L168.59 22.17Q167.51 22.17 166.67 21.65Q165.83 21.14 165.36 20.15Q164.89 19.16 164.89 17.80ZM167.27 17.80L167.27 17.80Q167.27 19.06 167.63 19.64Q167.98 20.22 168.59 20.22L168.59 20.22Q169.19 20.22 169.55 19.64Q169.90 19.06 169.90 17.80L169.90 17.80Q169.90 16.54 169.55 15.96Q169.19 15.38 168.59 15.38L168.59 15.38Q167.98 15.38 167.63 15.96Q167.27 16.54 167.27 17.80ZM176.59 17.80L176.59 17.80Q176.59 16.45 177.06 15.46Q177.53 14.46 178.37 13.95Q179.21 13.43 180.29 13.43L180.29 13.43Q181.36 13.43 182.20 13.95Q183.04 14.46 183.51 15.46Q183.99 16.45 183.99 17.80L183.99 17.80Q183.99 19.15 183.51 20.15Q183.04 21.14 182.20 21.65Q181.36 22.17 180.29 22.17L180.29 22.17Q179.21 22.17 178.37 21.65Q177.53 21.14 177.06 20.15Q176.59 19.16 176.59 17.80ZM178.97 17.80L178.97 17.80Q178.97 19.06 179.33 19.64Q179.68 20.22 180.29 20.22L180.29 20.22Q180.89 20.22 181.25 19.64Q181.60 19.06 181.60 17.80L181.60 17.80Q181.60 16.54 181.25 15.96Q180.89 15.38 180.29 15.38L180.29 15.38Q179.68 15.38 179.33 15.96Q178.97 16.54 178.97 17.80ZM188.29 17.80L188.29 17.80Q188.29 16.45 188.76 15.46Q189.23 14.46 190.07 13.95Q190.91 13.43 191.99 13.43L191.99 13.43Q193.06 13.43 193.90 13.95Q194.74 14.46 195.22 15.46Q195.69 16.45 195.69 17.80L195.69 17.80Q195.69 19.15 195.22 20.15Q194.74 21.14 193.90 21.65Q193.06 22.17 191.99 22.17L191.99 22.17Q190.91 22.17 190.07 21.65Q189.23 21.14 188.76 20.15Q188.29 19.16 188.29 17.80ZM190.67 17.80L190.67 17.80Q190.67 19.06 191.03 19.64Q191.38 20.22 191.99 20.22L191.99 20.22Q192.60 20.22 192.95 19.64Q193.30 19.06 193.30 17.80L193.30 17.80Q193.30 16.54 192.95 15.96Q192.60 15.38 191.99 15.38L191.99 15.38Q191.38 15.38 191.03 15.96Q190.67 16.54 190.67 17.80Z" fill="#FFFFFF" x="95.66"/></svg>